<?xml version="1.0" encoding="utf-8"?>
<!-- Generator: Adobe Illustrator 18.1.1, SVG Export Plug-In . SVG Version: 6.00 Build 0)  -->
<svg version="1.1" id="Layer_1" xmlns="http://www.w3.org/2000/svg" xmlns:xlink="http://www.w3.org/1999/xlink" x="0px" y="0px"
	 viewBox="0 0 103.349 107.981" enable-background="new 0 0 103.349 107.981" xml:space="preserve">
<g>
	<path fill="#262626" d="M51.679,68.696c-18.942,0-34.35-15.407-34.35-34.346C17.329,15.408,32.737,0,51.679,0
		c18.938,0,34.343,15.407,34.343,34.35C86.022,53.29,70.618,68.696,51.679,68.696z M51.679,10.571
		c-13.116,0-23.783,10.668-23.783,23.779c0,13.114,10.667,23.779,23.783,23.779c13.11,0,23.774-10.666,23.774-23.779
		C75.454,21.238,64.79,10.571,51.679,10.571z"/>
	<path fill="#262626" d="M98.064,107.981H5.284c-2.917,0-5.284-2.363-5.284-5.285c0-20.875,12.215-41.33,30.394-50.898
		c1.912-1.01,4.242-0.751,5.887,0.65c4.301,3.664,9.768,5.681,15.4,5.681c5.628,0,11.093-2.018,15.395-5.678
		c1.642-1.4,3.974-1.662,5.887-0.653c18.179,9.574,30.386,30.023,30.386,50.898C103.348,105.618,100.986,107.981,98.064,107.981z
		 M10.898,97.41h81.551c-1.715-13.87-9.995-27.246-21.56-34.607c-5.657,3.826-12.349,5.892-19.21,5.892
		c-6.866,0-13.559-2.07-19.214-5.892C20.899,70.162,12.616,83.538,10.898,97.41z"/>
</g>
<path fill="#262626" d="M213.417,29.481h-18.023c-0.026-4.361-0.254-9.83-2.27-14.764c-3.069-7.514-9.329-11.486-18.101-11.486
	s-15.031,3.972-18.101,11.486c-2.016,4.934-2.244,10.403-2.27,14.764H136.63l-4.843,74.5h86.472L213.417,29.481z M166.874,18.782
	c1.393-3.41,3.754-4.801,8.149-4.801c4.395,0,6.756,1.391,8.149,4.801c1.268,3.105,1.445,7.258,1.47,10.699h-19.239
	C165.428,26.04,165.605,21.887,166.874,18.782z M203.342,40.231l3.445,53h-63.529l3.445-53H203.342z"/>
<g>
	<g>
		<path fill="#262626" d="M338.748,16.277c-6.673-6.669-15.539-10.344-24.974-10.344c-9.433,0-18.301,3.672-24.971,10.341
			c-6.669,6.668-10.345,15.538-10.34,24.973c0,5.579,1.311,10.948,3.743,15.797l-28.901,28.901c-4.352,4.359-4.352,11.417,0,15.777
			c2.178,2.172,5.031,3.26,7.89,3.26c2.853,0,5.704-1.09,7.884-3.26l28.897-28.903c4.851,2.432,10.217,3.744,15.798,3.746
			c9.436,0,18.302-3.674,24.975-10.343c6.669-6.67,10.341-15.539,10.341-24.974C349.091,31.816,345.417,22.948,338.748,16.277z
			 M313.777,61.696c-5.457,0-10.593-2.131-14.458-5.994c-3.859-3.861-5.986-8.994-5.986-14.455
			c-0.004-5.461,2.126-10.593,5.986-14.455c3.862-3.861,8.995-5.986,14.455-5.986c5.463,0,10.597,2.125,14.459,5.986
			c3.862,3.862,5.986,8.997,5.986,14.459c0.004,5.463-2.124,10.594-5.982,14.456C324.372,59.567,319.239,61.696,313.777,61.696z"/>
	</g>
</g>
<path fill="#262626" d="M453.147,60.709c-0.508-0.297-1.446-0.005-2.068,0.269c-1.985,0.873-3.132,2.411-3.633,4.561
	c-0.232,0.996-0.883,2.166-1.564,2.717c-3.556,2.881-7.121,4.43-12.708,5.432c-3.181,0.57-6.233,0.515-9.456-0.897
	c-3.21-1.407-5.859-2.457-7.097-4.398c1.672-0.849,3.059-1.484,3.674-1.783c-0.722-0.175-1.059-0.257-1.452-0.352
	c1.74-0.939,3.456-1.866,5.172-2.793c-0.136-0.111-1.571-0.375-2.21-0.397c1.089-0.933,5.814-6.604,6.824-7.445
	c-0.732-0.184-2.62,0.92-3.178,0.78c0,0,4.237-4.989,5.368-6.127c-0.802-0.108-5.076,0.237-5.076,0.237l5.569-6.706
	c-1.117-0.047-3.411-0.018-3.871-0.038c0.693-1.15,3.802-5.774,4.636-7.567c-1.073-0.014-2.615,0.461-3.187,0.454
	c0,0,2.075-6.202,2.659-8.365c-1.046-0.04-2.995,0.574-3.494,0.555c0.499-1.023,2.034-6.637,2.529-7.923
	c-0.918,0.003-2.293,1.262-2.821,1.264c-0.377-1.195-0.334-16.006-0.334-16.006c-0.056,0.075-8.606,12.13-9.604,12.911
	c-0.436-0.292-0.849-2.089-1.605-2.597c-0.331,1.335-2.292,6.822-2.468,7.942c-0.424-0.258-1.682-1.838-2.57-2.38
	c-0.313,0.866-0.809,2.433-1.286,3.98c0.018-0.013,0.036-0.03,0.054-0.042l1.516-1.028l0.324,1.796
	c0.259,1.438,0.391,4.526,0.487,6.86c0.531-0.367,1.068-0.733,1.462-0.984l2.015-1.282l-0.662,8.295
	c0.849-0.665,1.688-1.293,2.069-1.488l2.117-1.088l-0.399,2.337c-0.126,0.74-0.331,2.65-0.507,4.417
	c0.066-0.035,0.134-0.065,0.203-0.091l2.176-0.824l-0.605,2.237c-0.147,0.545-0.404,2.894-0.61,4.782
	c-0.117,1.068-0.19,2.354-0.28,3.113l2.244-0.656l-1.943,4.533l1.582-0.614c0,0-4.41,8.523-5.185,10.343
	c-0.032-0.182-0.059-0.367-0.073-0.562c-0.031-0.418-0.163-0.787-0.373-1.116c1.161-2.757,2.318-5.24,2.759-6.065
	c-0.688,0.279-1.01,0.409-1.383,0.561c0.856-1.775,1.701-3.527,2.545-5.278c-0.175-0.011-1.494,0.612-2.025,0.967
	c0.333-1.39,0.82-8.741,1.143-10.011c-0.701,0.277-1.581,2.273-2.116,2.485c0,0,0.494-6.512,0.74-8.095
	c-0.714,0.38-3.973,3.152-3.973,3.152l0.561-8.68c-0.933,0.613-2.775,1.975-3.159,2.227c-0.116-1.336-0.321-6.896-0.701-8.834
	c-0.877,0.614-1.847,1.899-2.315,2.226c0,0-1.973-6.236-2.774-8.329c-0.871,0.577-2.089,2.211-2.504,2.487
	c-0.198-1.12-2.262-6.564-2.619-7.894c-0.741,0.538-1.114,2.359-1.541,2.669c-1.01-0.748-6.406-8.24-9.527-12.258
	c0,0-0.253-0.325-0.289-0.371c0,0,0.289,14.701-0.061,15.916c-0.525,0.017-1.918-1.198-2.83-1.168
	c0.518,1.275,2.162,6.864,2.679,7.874c-0.495,0.038-2.445-0.509-3.484-0.43c0.626,2.153,2.818,8.313,2.818,8.313
	c-0.568,0.029-2.111-0.393-3.177-0.339c0.867,1.771,4.053,6.307,4.766,7.437c-0.456,0.037-2.738,0.091-3.847,0.18l5.675,6.538
	c0,0-4.254-0.191-5.05-0.052c1.149,1.104,5.464,5.964,5.464,5.964c-0.551,0.162-2.451-0.879-3.175-0.667
	c1.022,0.809,5.836,6.338,6.938,7.235c-0.634,0.046-1.213,0.088-1.791,0.13c-0.132,0.117-0.265,0.234-0.398,0.351
	c1.725,0.869,3.45,1.738,5.199,2.618c-0.388,0.11-0.721,0.204-1.435,0.407c0.753,0.34,2.745,1.371,4.991,2.629
	c0.145,0.27,0.289,0.535,0.411,0.786c-4.333,0.927-8.576,1.834-13.363,2.858c1.985,1.724,6.884,2.876,8.98,3.274
	c-6.629,1.816-12.289,3.988-16.956,6.452c-7.679,4.053-10.642,11.694-10.642,11.694h2.14c1.591-4.168,4.866-8.195,9.671-10.847
	c6.797-3.206,9.186-2.789,14.951-3.433c6.382-0.712,12.599-2.199,19.082-1.557c4.929,0.489,9.9,1.021,14.834,0.885
	c7.065-0.195,13.295-2.753,18.34-7.929c1.328-1.363,2.953-2.737,4.707-3.33c3.995-1.351,20.507-6.35,20.453-6.528
	C472.982,61.194,458.017,63.554,453.147,60.709z"/>
<g id="ed27cc49-e71d-44ce-9254-9fdd2f8c9967.psd">
	<g id="Shape_5">
		<g>
			<path fill="#262626" d="M578.626,16.038c-7.58-6.304-18.527-10.683-32.537-13.015c-0.323-0.054-0.651-0.054-0.974,0
				c-41.893,6.991-44.015,30.395-44.015,35.015c0,15.259,5.838,25.363,17.801,30.845v20.253c0,0.788,0.312,1.544,0.869,2.101
				l11.867,11.883c0.556,0.557,1.311,0.87,2.098,0.87h23.735c0.787,0,1.542-0.313,2.098-0.87l11.867-11.883
				c0.556-0.557,0.869-1.313,0.869-2.101V68.882c11.964-5.48,17.801-15.586,17.801-30.845
				C590.105,34.281,588.986,24.619,578.626,16.038z M519.539,39.762c-0.414,0.525-0.638,1.173-0.638,1.841v20.623
				c-8.166-4.677-11.867-12.312-11.867-24.188c0-3.763,1.868-22.782,38.569-29.072c9.044,1.546,16.619,3.977,22.649,7.246
				c-6.728,1.06-15.203,2.924-23.527,6.192c-0.164,0.051-0.322,0.114-0.472,0.191C533.457,26.884,525.138,32.655,519.539,39.762z
				 M524.834,50.514h3.56c0,1.965,1.598,3.565,3.56,3.565c1.963,0,3.56-1.6,3.56-3.565h3.56v14.26h-2.967
				c-1.415,0-2.632,0.999-2.91,2.388l-1.285,6.44l-7.079-7.087V50.514z M566.37,87.903l-10.13,10.144h-21.276l-10.13-10.144V74.916
				l6.802,6.812c0.774,0.776,1.911,1.062,2.957,0.743c1.047-0.318,1.835-1.186,2.05-2.26l1.896-9.495h14.123l1.896,9.495
				c0.215,1.074,1.003,1.943,2.049,2.26c0.284,0.087,0.573,0.128,0.86,0.128c0.775,0,1.533-0.304,2.098-0.87l6.802-6.811V87.903z
				 M566.37,44.573h-13.647c-1.639,0-2.967,1.33-2.967,2.971c0,1.641,1.328,2.971,2.967,2.971h2.967c0,1.965,1.597,3.565,3.56,3.565
				c1.963,0,3.56-1.6,3.56-3.565h3.56v16.001l-7.079,7.087l-1.285-6.44c-0.278-1.388-1.495-2.388-2.91-2.388h-10.087v-17.23
				c0-1.641-1.328-2.971-2.967-2.971h-17.208v-1.917c4.793-5.743,11.792-10.504,20.789-14.194
				c8.968,3.695,15.953,8.456,20.747,14.196V44.573z M572.304,62.225V41.602c0-0.669-0.224-1.317-0.638-1.842
				c-4.388-5.56-10.448-10.297-18.034-14.159c7.594-2.309,14.866-3.528,20.109-4.159c0.011-0.001,0.807-0.087,1.898-0.128
				c7.661,6.774,8.533,13.905,8.533,16.722C584.171,49.914,580.47,57.548,572.304,62.225z M547.975,74.281h-4.747
				c-1.639,0-2.967,1.33-2.967,2.971c0,1.641,1.328,2.971,2.967,2.971h4.747c1.639,0,2.967-1.329,2.967-2.971
				C550.942,75.61,549.615,74.281,547.975,74.281z"/>
		</g>
	</g>
</g>
<g id="_x32_91feff7-e649-40aa-add4-2f3071ef722e.psd">
	<g id="Shape_4">
		<g>
			<path fill="#262626" d="M715.861,39.668l-13.204-21.6c-0.426-0.32-0.958-0.533-1.491-0.533h-65.277
				c-0.532,0-1.065,0.213-1.491,0.533l-13.098,21.6c-0.426,0.32-0.639,0.96-0.639,1.494v5.973c0,1.173,0.958,2.134,2.13,2.134h2.875
				v43.626c0,1.173,0.958,2.133,2.13,2.133h81.676c1.171,0,2.13-0.96,2.13-2.133V49.268h2.769c1.171,0,2.13-0.96,2.13-2.134v-5.973
				C716.5,40.628,716.287,39.988,715.861,39.668z M673.159,90.76h-9.051V71.987h9.051V90.76z M659.635,67.721v-1.067l2.449-5.653
				h13.098l2.449,5.653v1.067H659.635z M707.236,90.76h-29.923V71.987h2.343c1.171,0,2.13-0.96,2.13-2.133v-3.627
				c0-0.32-0.107-0.533-0.213-0.854l-3.195-7.36c-0.32-0.747-1.065-1.28-1.917-1.28h-15.867c-0.852,0-1.597,0.533-1.917,1.28
				l-3.195,7.36c-0.107,0.32-0.213,0.533-0.213,0.854v3.627c0,1.173,0.958,2.133,2.13,2.133h2.343V90.76h-29.817V49.268h77.31V90.76
				z M712.241,45.001h-87.32v-2.88l11.82-20.427h63.68l11.82,20.427V45.001z M635.889,82.014h13.098c1.171,0,2.13-0.96,2.13-2.133
				V58.868c0-1.173-0.958-2.133-2.13-2.133h-13.098c-1.171,0-2.13,0.96-2.13,2.133v21.013
				C633.759,81.054,634.717,82.014,635.889,82.014z M638.018,61.001h8.838v16.746h-8.838V61.001z M688.068,82.014h13.098
				c1.171,0,2.13-0.96,2.13-2.133V58.868c0-1.173-0.958-2.133-2.13-2.133h-13.098c-1.171,0-2.13,0.96-2.13,2.133v21.013
				C685.938,81.054,686.896,82.014,688.068,82.014z M690.198,61.001h8.839v16.746h-8.839V61.001z M678.031,37.942
				c0,0-3.153-1.452-6.97-0.325c4.948-3.453,5.931-8.676,5.931-8.676s-5.052,1.385-7.934,6.542c1.683-6.739-1.5-11.977-1.5-11.977
				s-3.237,5.052-1.677,11.616c-2.91-4.861-7.726-6.182-7.726-6.182s0.99,5.26,5.983,8.712c-3.87-1.195-7.09,0.288-7.09,0.288
				s3.072,2.521,7.569,2.125c-2.249,1.043-3.224,2.934-3.224,2.934s3.675,0.085,6.012-3.279l0.369-0.008
				c2.336,3.372,6.018,3.287,6.018,3.287s-0.968-1.878-3.201-2.923C675.018,40.414,678.031,37.942,678.031,37.942z"/>
		</g>
	</g>
</g>
<g id="_x33_a2f5c69-d863-4272-824f-30e3d0fb4b9c.psd">
	<g id="Shape_3">
		<g>
			<path fill="#262626" d="M784.585,39.666c-6.16-5.174-16.113-6.916-23.294-21.804c7.949,13.299,17.715,14.166,24.392,20.838
				c-3.299-21.273-20.501-19.834-28.692-32.241c-5.454,37.275,15.839,32.607,24.462,36.285
				C782.455,41.671,783.502,40.647,784.585,39.666z M790.729,44.763c-0.931,0.651-1.822,1.355-2.676,2.11
				c1.807,1.995,3.442,3.999,4.737,6.071c1.876,3.001,3.066,6.196,3.066,9.812c0,3.615-1.192,6.809-3.066,9.812
				c-1.947,3.113-4.664,6.075-7.58,9.085c-3.04,3.139-5.891,6.253-8.024,9.667c-1.906,3.052-3.276,6.299-3.528,9.947
				c-0.064,0.955,0.76,1.73,1.685,1.73c0.927,0,1.609-0.778,1.685-1.729c0.236-2.926,1.402-5.569,2.973-8.083
				c1.946-3.114,4.664-6.074,7.579-9.085c3.042-3.139,5.891-6.252,8.024-9.667c2.204-3.527,3.603-7.319,3.603-11.677
				c0-4.359-1.399-8.152-3.603-11.679C794.23,48.876,792.558,46.802,790.729,44.763z M820.57,0
				c-9.518,14.416-32.914,18.073-33.338,37.466c7.758-7.752,19.106-8.758,28.341-24.213c-8.109,16.815-16.889,16.935-27.998,26.09
				c-3.77,3.108-7.331,6.844-10.388,11.737c-2.202,3.527-3.602,7.32-3.602,11.679c0,4.357,1.4,8.149,3.602,11.676
				c1.575,2.521,3.54,4.878,5.684,7.2c0.385-0.404,0.771-0.805,1.156-1.203c0.4-0.413,0.804-0.831,1.206-1.254
				c-1.411-1.531-2.732-3.067-3.881-4.629h7.965c0.744-0.945,1.441-1.916,2.065-2.917c0.114-0.181,0.223-0.363,0.331-0.544h-12.569
				c-1.106-2.073-1.861-4.249-2.114-6.601h17.047c0.069-0.565,0.104-1.142,0.104-1.73c0-0.591-0.035-1.167-0.104-1.73h-17.047
				c0.252-2.354,1.008-4.529,2.114-6.601h12.569c-0.109-0.184-0.217-0.365-0.331-0.546c-0.623-0.999-1.321-1.972-2.065-2.916h-7.966
				c3.321-4.515,6.756-7.362,10.109-9.36C802.537,35,827.017,44.061,820.57,0z"/>
		</g>
	</g>
</g>
</svg>
