<?xml version="1.0" encoding="utf-8"?>
<!-- Generator: Adobe Illustrator 18.1.1, SVG Export Plug-In . SVG Version: 6.00 Build 0)  -->
<svg version="1.1" id="Layer_1" xmlns="http://www.w3.org/2000/svg" xmlns:xlink="http://www.w3.org/1999/xlink" x="0px" y="0px"
	 viewBox="370.046 0 103.349 107.981" enable-background="new 370.046 0 103.349 107.981" xml:space="preserve">
<path fill="#FFFFFF" d="M453.147,60.709c-0.508-0.297-1.446-0.005-2.068,0.269c-1.985,0.873-3.132,2.411-3.633,4.561
	c-0.232,0.996-0.883,2.166-1.564,2.717c-3.557,2.881-7.121,4.43-12.708,5.432c-3.181,0.57-6.233,0.515-9.456-0.897
	c-3.21-1.407-5.859-2.457-7.097-4.398c1.672-0.849,3.059-1.484,3.674-1.783c-0.722-0.175-1.059-0.257-1.452-0.352
	c1.74-0.939,3.456-1.866,5.172-2.793c-0.136-0.111-1.571-0.375-2.21-0.397c1.089-0.933,5.814-6.604,6.824-7.445
	c-0.732-0.184-2.62,0.92-3.178,0.78c0,0,4.237-4.989,5.368-6.127c-0.802-0.108-5.076,0.237-5.076,0.237l5.569-6.706
	c-1.117-0.047-3.411-0.018-3.871-0.038c0.693-1.15,3.802-5.774,4.636-7.567c-1.073-0.014-2.615,0.461-3.187,0.454
	c0,0,2.075-6.202,2.659-8.365c-1.046-0.04-2.995,0.574-3.494,0.555c0.499-1.023,2.034-6.637,2.529-7.923
	c-0.918,0.003-2.293,1.262-2.821,1.264c-0.377-1.195-0.334-16.006-0.334-16.006c-0.056,0.075-8.606,12.13-9.604,12.911
	c-0.436-0.292-0.849-2.089-1.605-2.597c-0.331,1.335-2.292,6.822-2.468,7.942c-0.424-0.258-1.682-1.838-2.57-2.38
	c-0.313,0.866-0.809,2.433-1.286,3.98c0.018-0.013,0.036-0.03,0.054-0.042l1.516-1.028l0.324,1.796
	c0.259,1.438,0.391,4.526,0.487,6.86c0.531-0.367,1.068-0.733,1.462-0.984l2.015-1.282l-0.662,8.295
	c0.849-0.665,1.688-1.293,2.069-1.488l2.117-1.088l-0.399,2.337c-0.126,0.74-0.331,2.65-0.507,4.417
	c0.066-0.035,0.134-0.065,0.203-0.091l2.176-0.824l-0.605,2.237c-0.147,0.545-0.404,2.894-0.61,4.782
	c-0.117,1.068-0.19,2.354-0.28,3.113l2.244-0.656l-1.943,4.533l1.582-0.614c0,0-4.41,8.523-5.185,10.343
	c-0.032-0.182-0.059-0.367-0.073-0.562c-0.031-0.418-0.163-0.787-0.373-1.116c1.161-2.757,2.318-5.24,2.759-6.065
	c-0.688,0.279-1.01,0.409-1.383,0.561c0.856-1.775,1.701-3.527,2.545-5.278c-0.175-0.011-1.494,0.612-2.025,0.967
	c0.333-1.39,0.82-8.741,1.143-10.011c-0.701,0.277-1.581,2.273-2.116,2.485c0,0,0.494-6.512,0.74-8.095
	c-0.714,0.38-3.973,3.152-3.973,3.152l0.561-8.68c-0.933,0.613-2.775,1.975-3.159,2.227c-0.116-1.336-0.321-6.896-0.701-8.834
	c-0.877,0.614-1.847,1.899-2.315,2.226c0,0-1.973-6.236-2.774-8.329c-0.871,0.577-2.089,2.211-2.504,2.487
	c-0.198-1.12-2.262-6.564-2.619-7.894c-0.741,0.538-1.114,2.359-1.541,2.669c-1.01-0.748-6.406-8.24-9.527-12.258
	c0,0-0.253-0.325-0.289-0.371c0,0,0.289,14.701-0.061,15.916c-0.525,0.017-1.918-1.198-2.83-1.168
	c0.518,1.275,2.162,6.864,2.679,7.874c-0.495,0.038-2.445-0.509-3.484-0.43c0.626,2.153,2.818,8.313,2.818,8.313
	c-0.568,0.029-2.111-0.393-3.177-0.339c0.867,1.771,4.053,6.307,4.766,7.437c-0.456,0.037-2.738,0.091-3.847,0.18l5.675,6.538
	c0,0-4.254-0.191-5.05-0.052c1.149,1.104,5.464,5.964,5.464,5.964c-0.551,0.162-2.451-0.879-3.175-0.667
	c1.022,0.809,5.836,6.338,6.938,7.235c-0.635,0.046-1.213,0.088-1.791,0.13c-0.132,0.117-0.265,0.234-0.398,0.351
	c1.725,0.869,3.45,1.738,5.199,2.618c-0.388,0.11-0.721,0.204-1.435,0.407c0.753,0.34,2.745,1.371,4.991,2.629
	c0.145,0.27,0.289,0.535,0.411,0.786c-4.333,0.927-8.576,1.834-13.363,2.858c1.985,1.724,6.884,2.876,8.98,3.274
	c-6.629,1.816-12.289,3.988-16.956,6.452c-7.679,4.053-10.642,11.694-10.642,11.694h2.14c1.591-4.168,4.866-8.195,9.671-10.847
	c6.797-3.206,9.186-2.789,14.951-3.433c6.382-0.712,12.599-2.199,19.082-1.557c4.929,0.489,9.9,1.021,14.834,0.885
	c7.065-0.195,13.295-2.753,18.34-7.929c1.328-1.363,2.953-2.737,4.707-3.33c3.995-1.351,20.507-6.35,20.454-6.528
	C472.982,61.194,458.017,63.554,453.147,60.709z"/>
</svg>
