<?xml version="1.0" encoding="utf-8"?>
<!-- Generator: Adobe Illustrator 18.1.1, SVG Export Plug-In . SVG Version: 6.00 Build 0)  -->
<svg version="1.1" id="Layer_1" xmlns="http://www.w3.org/2000/svg" xmlns:xlink="http://www.w3.org/1999/xlink" x="0px" y="0px"
	 viewBox="123.349 0 103.349 107.981" enable-background="new 123.349 0 103.349 107.981" xml:space="preserve">
<path fill="#4A4A4A" d="M213.417,29.481h-18.023c-0.026-4.361-0.254-9.83-2.27-14.764c-3.069-7.514-9.329-11.486-18.101-11.486
	s-15.031,3.972-18.101,11.486c-2.016,4.934-2.244,10.403-2.27,14.764H136.63l-4.843,74.5h86.472L213.417,29.481z M166.874,18.782
	c1.393-3.41,3.754-4.801,8.149-4.801c4.395,0,6.756,1.391,8.149,4.801c1.268,3.105,1.445,7.258,1.47,10.699h-19.239
	C165.428,26.04,165.605,21.887,166.874,18.782z M203.342,40.231l3.445,53h-63.529l3.445-53H203.342z"/>
</svg>
