<?xml version="1.0" encoding="utf-8"?>
<!-- Generator: Adobe Illustrator 18.1.1, SVG Export Plug-In . SVG Version: 6.00 Build 0)  -->
<svg version="1.1" id="Layer_1" xmlns="http://www.w3.org/2000/svg" xmlns:xlink="http://www.w3.org/1999/xlink" x="0px" y="0px"
	 viewBox="616.744 0 103.349 107.981" enable-background="new 616.744 0 103.349 107.981" xml:space="preserve">
<g id="_x32_91feff7-e649-40aa-add4-2f3071ef722e.psd">
	<g id="Shape_4">
		<g>
			<path fill="#4A4A4A" d="M715.861,39.668l-13.204-21.6c-0.426-0.32-0.958-0.533-1.491-0.533h-65.277
				c-0.532,0-1.065,0.213-1.491,0.533l-13.098,21.6c-0.426,0.32-0.639,0.96-0.639,1.494v5.973c0,1.173,0.958,2.134,2.13,2.134h2.875
				v43.626c0,1.173,0.958,2.133,2.13,2.133h81.676c1.171,0,2.13-0.96,2.13-2.133V49.268h2.769c1.171,0,2.13-0.96,2.13-2.134v-5.973
				C716.5,40.628,716.287,39.988,715.861,39.668z M673.159,90.76h-9.051V71.987h9.051V90.76z M659.635,67.721v-1.067l2.449-5.653
				h13.098l2.449,5.653v1.067H659.635z M707.236,90.76h-29.923V71.987h2.343c1.171,0,2.13-0.96,2.13-2.133v-3.627
				c0-0.32-0.107-0.533-0.213-0.854l-3.195-7.36c-0.32-0.747-1.065-1.28-1.917-1.28h-15.867c-0.852,0-1.597,0.533-1.917,1.28
				l-3.195,7.36c-0.107,0.32-0.213,0.533-0.213,0.854v3.627c0,1.173,0.958,2.133,2.13,2.133h2.343V90.76h-29.817V49.268h77.31V90.76
				z M712.241,45.001h-87.32v-2.88l11.82-20.427h63.68l11.82,20.427V45.001z M635.889,82.014h13.098c1.171,0,2.13-0.96,2.13-2.133
				V58.868c0-1.173-0.958-2.133-2.13-2.133h-13.098c-1.171,0-2.13,0.96-2.13,2.133v21.013
				C633.759,81.054,634.717,82.014,635.889,82.014z M638.018,61.001h8.838v16.746h-8.838V61.001z M688.068,82.014h13.098
				c1.171,0,2.13-0.96,2.13-2.133V58.868c0-1.173-0.958-2.133-2.13-2.133h-13.098c-1.171,0-2.13,0.96-2.13,2.133v21.013
				C685.938,81.054,686.896,82.014,688.068,82.014z M690.198,61.001h8.839v16.746h-8.839V61.001z M678.031,37.942
				c0,0-3.153-1.452-6.97-0.325c4.948-3.453,5.931-8.676,5.931-8.676s-5.052,1.385-7.934,6.542c1.683-6.739-1.5-11.977-1.5-11.977
				s-3.237,5.052-1.677,11.616c-2.91-4.861-7.726-6.182-7.726-6.182s0.99,5.26,5.983,8.712c-3.87-1.195-7.09,0.288-7.09,0.288
				s3.072,2.521,7.569,2.125c-2.249,1.043-3.224,2.934-3.224,2.934s3.675,0.085,6.012-3.279l0.369-0.008
				c2.336,3.372,6.018,3.287,6.018,3.287s-0.968-1.878-3.201-2.923C675.018,40.414,678.031,37.942,678.031,37.942z"/>
		</g>
	</g>
</g>
</svg>
