<?xml version="1.0" encoding="utf-8"?>
<!-- Generator: Adobe Illustrator 18.1.1, SVG Export Plug-In . SVG Version: 6.00 Build 0)  -->
<svg version="1.1" id="Layer_1" xmlns="http://www.w3.org/2000/svg" xmlns:xlink="http://www.w3.org/1999/xlink" x="0px" y="0px"
	 viewBox="246.698 0 103.349 107.981" enable-background="new 246.698 0 103.349 107.981" xml:space="preserve">
<g>
	<g>
		<path fill="#4A4A4A" d="M338.748,16.277c-6.673-6.669-15.539-10.344-24.974-10.344c-9.433,0-18.301,3.672-24.971,10.341
			c-6.669,6.668-10.345,15.538-10.34,24.973c0,5.579,1.311,10.948,3.743,15.797l-28.901,28.901c-4.352,4.359-4.352,11.417,0,15.777
			c2.178,2.172,5.031,3.26,7.89,3.26c2.853,0,5.704-1.09,7.884-3.26l28.897-28.903c4.851,2.432,10.217,3.744,15.798,3.746
			c9.436,0,18.302-3.674,24.975-10.343c6.669-6.67,10.341-15.539,10.341-24.974C349.091,31.816,345.417,22.948,338.748,16.277z
			 M313.777,61.696c-5.457,0-10.593-2.131-14.458-5.994c-3.859-3.861-5.986-8.994-5.986-14.455
			c-0.004-5.461,2.126-10.593,5.986-14.455c3.862-3.861,8.995-5.986,14.455-5.986c5.463,0,10.597,2.125,14.459,5.986
			c3.862,3.862,5.986,8.997,5.986,14.459c0.004,5.463-2.124,10.594-5.982,14.456C324.372,59.567,319.239,61.696,313.777,61.696z"/>
	</g>
</g>
</svg>
