<?xml version="1.0" encoding="utf-8"?>
<!-- Generator: Adobe Illustrator 18.1.1, SVG Export Plug-In . SVG Version: 6.00 Build 0)  -->
<svg version="1.1" id="Layer_1" xmlns="http://www.w3.org/2000/svg" xmlns:xlink="http://www.w3.org/1999/xlink" x="0px" y="0px"
	 viewBox="0 0 103.349 107.981" enable-background="new 0 0 103.349 107.981" xml:space="preserve">
<g>
	<path fill="#FFFFFF" d="M51.679,68.696c-18.942,0-34.35-15.407-34.35-34.346C17.329,15.408,32.737,0,51.679,0
		c18.938,0,34.343,15.407,34.343,34.35C86.022,53.29,70.618,68.696,51.679,68.696z M51.679,10.571
		c-13.116,0-23.783,10.668-23.783,23.779c0,13.114,10.667,23.779,23.783,23.779c13.11,0,23.774-10.666,23.774-23.779
		C75.454,21.238,64.79,10.571,51.679,10.571z"/>
	<path fill="#FFFFFF" d="M98.064,107.981H5.284c-2.917,0-5.284-2.363-5.284-5.285c0-20.875,12.215-41.33,30.394-50.898
		c1.912-1.01,4.242-0.751,5.887,0.65c4.301,3.664,9.768,5.681,15.4,5.681c5.628,0,11.093-2.018,15.395-5.678
		c1.642-1.4,3.974-1.662,5.887-0.653c18.179,9.574,30.386,30.023,30.386,50.898C103.348,105.618,100.986,107.981,98.064,107.981z
		 M10.898,97.41h81.551c-1.715-13.87-9.995-27.246-21.56-34.607c-5.657,3.826-12.349,5.892-19.21,5.892
		c-6.866,0-13.559-2.07-19.214-5.892C20.899,70.162,12.616,83.538,10.898,97.41z"/>
</g>
</svg>
