<?xml version="1.0" encoding="utf-8"?>
<!-- Generator: Adobe Illustrator 18.1.1, SVG Export Plug-In . SVG Version: 6.00 Build 0)  -->
<svg version="1.1" id="Layer_1" xmlns="http://www.w3.org/2000/svg" xmlns:xlink="http://www.w3.org/1999/xlink" x="0px" y="0px"
	 viewBox="493.395 0 103.349 107.981" enable-background="new 493.395 0 103.349 107.981" xml:space="preserve">
<g id="ed27cc49-e71d-44ce-9254-9fdd2f8c9967.psd">
	<g id="Shape_5">
		<g>
			<path fill="#FFFFFF" d="M578.626,16.038c-7.58-6.304-18.527-10.683-32.537-13.015c-0.323-0.054-0.651-0.054-0.974,0
				c-41.893,6.991-44.015,30.395-44.015,35.015c0,15.259,5.838,25.363,17.801,30.845v20.253c0,0.788,0.312,1.544,0.869,2.101
				l11.867,11.883c0.556,0.557,1.311,0.87,2.098,0.87h23.735c0.787,0,1.542-0.313,2.098-0.87l11.867-11.883
				c0.556-0.557,0.869-1.313,0.869-2.101V68.882c11.964-5.48,17.801-15.586,17.801-30.845
				C590.105,34.281,588.986,24.619,578.626,16.038z M519.539,39.762c-0.414,0.525-0.638,1.173-0.638,1.841v20.623
				c-8.166-4.677-11.867-12.312-11.867-24.188c0-3.763,1.868-22.782,38.569-29.072c9.044,1.546,16.619,3.977,22.649,7.246
				c-6.728,1.06-15.203,2.924-23.527,6.192c-0.164,0.051-0.322,0.114-0.472,0.191C533.457,26.884,525.138,32.655,519.539,39.762z
				 M524.834,50.514h3.56c0,1.965,1.598,3.565,3.56,3.565c1.963,0,3.56-1.6,3.56-3.565h3.56v14.26h-2.967
				c-1.415,0-2.632,0.999-2.91,2.388l-1.285,6.44l-7.079-7.087V50.514z M566.37,87.903l-10.13,10.144h-21.276l-10.13-10.144V74.916
				l6.802,6.812c0.774,0.776,1.911,1.062,2.957,0.743c1.047-0.318,1.835-1.186,2.05-2.26l1.896-9.495h14.123l1.896,9.495
				c0.215,1.074,1.003,1.943,2.049,2.26c0.284,0.087,0.573,0.128,0.86,0.128c0.775,0,1.533-0.304,2.098-0.87l6.802-6.811V87.903z
				 M566.37,44.573h-13.647c-1.639,0-2.967,1.33-2.967,2.971c0,1.641,1.328,2.971,2.967,2.971h2.967c0,1.965,1.597,3.565,3.56,3.565
				c1.963,0,3.56-1.6,3.56-3.565h3.56v16.001l-7.079,7.087l-1.285-6.44c-0.278-1.388-1.495-2.388-2.91-2.388h-10.087v-17.23
				c0-1.641-1.328-2.971-2.967-2.971h-17.208v-1.917c4.793-5.743,11.792-10.504,20.789-14.194
				c8.968,3.695,15.953,8.456,20.747,14.196V44.573z M572.304,62.225V41.602c0-0.669-0.224-1.317-0.638-1.842
				c-4.388-5.56-10.448-10.297-18.034-14.159c7.594-2.309,14.866-3.528,20.109-4.159c0.011-0.001,0.807-0.087,1.898-0.128
				c7.661,6.774,8.533,13.905,8.533,16.722C584.171,49.914,580.47,57.548,572.304,62.225z M547.975,74.281h-4.747
				c-1.639,0-2.967,1.33-2.967,2.971c0,1.641,1.328,2.971,2.967,2.971h4.747c1.639,0,2.967-1.329,2.967-2.971
				C550.942,75.61,549.615,74.281,547.975,74.281z"/>
		</g>
	</g>
</g>
</svg>
