<?xml version="1.0" encoding="utf-8"?>
<!-- Generator: Adobe Illustrator 18.1.1, SVG Export Plug-In . SVG Version: 6.00 Build 0)  -->
<svg version="1.1" id="Layer_1" xmlns="http://www.w3.org/2000/svg" xmlns:xlink="http://www.w3.org/1999/xlink" x="0px" y="0px"
	 viewBox="740.093 0 103.349 107.981" enable-background="new 740.093 0 103.349 107.981" xml:space="preserve">
<g id="_x33_a2f5c69-d863-4272-824f-30e3d0fb4b9c.psd">
	<g id="Shape_3">
		<g>
			<path fill="#FFFFFF" d="M784.585,39.666c-6.16-5.174-16.113-6.916-23.294-21.804c7.949,13.299,17.715,14.166,24.392,20.838
				c-3.299-21.273-20.501-19.834-28.692-32.241c-5.454,37.275,15.839,32.607,24.462,36.285
				C782.455,41.671,783.502,40.647,784.585,39.666z M790.729,44.763c-0.931,0.651-1.822,1.355-2.676,2.11
				c1.807,1.995,3.442,3.999,4.737,6.071c1.876,3.001,3.066,6.196,3.066,9.812c0,3.615-1.192,6.809-3.066,9.812
				c-1.947,3.113-4.664,6.075-7.58,9.085c-3.04,3.139-5.891,6.253-8.024,9.667c-1.906,3.052-3.276,6.299-3.528,9.947
				c-0.064,0.955,0.76,1.73,1.685,1.73c0.927,0,1.609-0.778,1.685-1.729c0.236-2.926,1.402-5.569,2.973-8.083
				c1.946-3.114,4.664-6.074,7.579-9.085c3.042-3.139,5.891-6.252,8.024-9.667c2.204-3.527,3.603-7.319,3.603-11.677
				c0-4.359-1.399-8.152-3.603-11.679C794.23,48.876,792.558,46.802,790.729,44.763z M820.57,0
				c-9.518,14.416-32.914,18.073-33.338,37.466c7.758-7.752,19.106-8.758,28.341-24.213c-8.109,16.815-16.889,16.935-27.998,26.09
				c-3.77,3.108-7.331,6.844-10.388,11.737c-2.202,3.527-3.602,7.32-3.602,11.679c0,4.357,1.4,8.149,3.602,11.676
				c1.575,2.521,3.54,4.878,5.684,7.2c0.385-0.404,0.771-0.805,1.156-1.203c0.4-0.413,0.804-0.831,1.206-1.254
				c-1.411-1.531-2.732-3.067-3.881-4.629h7.965c0.744-0.945,1.441-1.916,2.065-2.917c0.114-0.181,0.223-0.363,0.331-0.544h-12.569
				c-1.106-2.073-1.861-4.249-2.114-6.601h17.047c0.069-0.565,0.104-1.142,0.104-1.73c0-0.591-0.035-1.167-0.104-1.73h-17.047
				c0.252-2.354,1.008-4.529,2.114-6.601h12.569c-0.109-0.184-0.217-0.365-0.331-0.546c-0.623-0.999-1.321-1.972-2.065-2.916h-7.966
				c3.321-4.515,6.756-7.362,10.109-9.36C802.537,35,827.017,44.061,820.57,0z"/>
		</g>
	</g>
</g>
</svg>
